<?xml version="1.0" encoding="utf-8"?>
<!-- Generator: Adobe Illustrator 19.1.0, SVG Export Plug-In . SVG Version: 6.00 Build 0)  -->
<svg version="1.1" id="Capa_1" xmlns="http://www.w3.org/2000/svg" xmlns:xlink="http://www.w3.org/1999/xlink" x="0px" y="0px"
	 viewBox="0 0 960 560" style="enable-background:new 0 0 960 560;" xml:space="preserve">
<style type="text/css">
	.st0{fill:#696969;}
	.st1{fill:#59E800;}
	.st2{fill:#00ADEE;}
	.st3{fill-rule:evenodd;clip-rule:evenodd;fill:#00ADEE;}
	.st4{fill-rule:evenodd;clip-rule:evenodd;fill:#59E800;}
	.st5{fill-rule:evenodd;clip-rule:evenodd;fill:#696969;}
	.st6{fill:#FFFFFF;}
</style>
<g>
	<rect x="543.6" y="272.9" class="st0" width="6.7" height="6.7"/>
	<rect x="553.5" y="263" class="st0" width="6.7" height="6.7"/>
	<rect x="543.6" y="213.3" class="st0" width="6.7" height="6.7"/>
	<rect x="533.7" y="213.3" class="st0" width="6.7" height="6.7"/>
	<rect x="553.5" y="243.1" class="st0" width="6.7" height="6.7"/>
	<rect x="553.5" y="233.2" class="st0" width="6.7" height="6.7"/>
	<rect x="553.5" y="223.3" class="st0" width="6.7" height="6.7"/>
	<rect x="533.7" y="272.9" class="st0" width="6.7" height="6.7"/>
	<rect x="553.5" y="253.1" class="st0" width="6.7" height="6.7"/>
	<rect x="513.8" y="272.9" class="st0" width="6.7" height="6.7"/>
	<rect x="513.8" y="243.1" class="st0" width="6.7" height="6.7"/>
	<rect x="513.8" y="233.2" class="st0" width="6.7" height="6.7"/>
	<rect x="513.8" y="253.1" class="st0" width="6.7" height="6.7"/>
	<rect x="513.8" y="263" class="st0" width="6.7" height="6.7"/>
	<rect x="523.7" y="272.9" class="st0" width="6.7" height="6.7"/>
	<rect x="523.7" y="213.3" class="st0" width="6.7" height="6.7"/>
	<rect x="513.8" y="213.3" class="st0" width="6.7" height="6.7"/>
	<rect x="513.8" y="223.3" class="st0" width="6.7" height="6.7"/>
	<rect x="603.1" y="272.9" class="st0" width="6.7" height="6.7"/>
	<rect x="593.2" y="213.3" class="st0" width="6.7" height="6.7"/>
	<rect x="593.2" y="243.1" class="st0" width="6.7" height="6.7"/>
	<rect x="593.2" y="233.2" class="st0" width="6.7" height="6.7"/>
	<rect x="613.1" y="213.3" class="st0" width="6.7" height="6.7"/>
	<rect x="613.1" y="272.9" class="st0" width="6.7" height="6.7"/>
	<rect x="603.1" y="213.3" class="st0" width="6.7" height="6.7"/>
	<rect x="593.2" y="223.3" class="st0" width="6.7" height="6.7"/>
	<rect x="573.4" y="213.3" class="st0" width="6.7" height="6.7"/>
	<rect x="583.3" y="272.9" class="st0" width="6.7" height="6.7"/>
	<rect x="593.2" y="253.1" class="st0" width="6.7" height="6.7"/>
	<rect x="573.4" y="272.9" class="st0" width="6.7" height="6.7"/>
	<rect x="593.2" y="263" class="st0" width="6.7" height="6.7"/>
	<rect x="583.3" y="213.3" class="st0" width="6.7" height="6.7"/>
	<rect x="593.2" y="272.9" class="st0" width="6.7" height="6.7"/>
	<rect x="652.8" y="213.3" class="st0" width="6.7" height="6.7"/>
	<rect x="652.8" y="248.1" class="st0" width="6.7" height="6.7"/>
	<rect x="662.7" y="272.9" class="st0" width="6.7" height="6.7"/>
	<rect x="672.6" y="263" class="st0" width="6.7" height="6.7"/>
	<rect x="662.7" y="248.1" class="st0" width="6.7" height="6.7"/>
	<rect x="672.6" y="248.1" class="st0" width="6.7" height="6.7"/>
	<rect x="662.7" y="213.3" class="st0" width="6.7" height="6.7"/>
	<rect x="652.8" y="272.9" class="st0" width="6.7" height="6.7"/>
	<rect x="632.9" y="253.1" class="st0" width="6.7" height="6.7"/>
	<rect x="632.9" y="263" class="st0" width="6.7" height="6.7"/>
	<rect x="672.6" y="223.3" class="st0" width="6.7" height="6.7"/>
	<rect x="642.8" y="213.3" class="st0" width="6.7" height="6.7"/>
	<rect x="642.8" y="272.9" class="st0" width="6.7" height="6.7"/>
	<rect x="632.9" y="223.3" class="st0" width="6.7" height="6.7"/>
	<rect x="632.9" y="233.2" class="st0" width="6.7" height="6.7"/>
	<rect x="632.9" y="243.1" class="st0" width="6.7" height="6.7"/>
	<rect x="712.3" y="213.3" class="st0" width="6.7" height="6.7"/>
	<rect x="722.2" y="272.9" class="st0" width="6.7" height="6.7"/>
	<rect x="712.3" y="223.3" class="st0" width="6.7" height="6.7"/>
	<rect x="712.3" y="233.2" class="st0" width="6.7" height="6.7"/>
	<rect x="732.1" y="213.3" class="st0" width="6.7" height="6.7"/>
	<rect x="712.3" y="263" class="st0" width="6.7" height="6.7"/>
	<rect x="722.2" y="213.3" class="st0" width="6.7" height="6.7"/>
	<rect x="732.1" y="272.9" class="st0" width="6.7" height="6.7"/>
	<rect x="702.4" y="272.9" class="st0" width="6.7" height="6.7"/>
	<rect x="702.4" y="213.3" class="st0" width="6.7" height="6.7"/>
	<rect x="712.3" y="272.9" class="st0" width="6.7" height="6.7"/>
	<rect x="692.5" y="213.3" class="st0" width="6.7" height="6.7"/>
	<rect x="712.3" y="243.1" class="st0" width="6.7" height="6.7"/>
	<rect x="712.3" y="253.1" class="st0" width="6.7" height="6.7"/>
	<rect x="692.5" y="272.9" class="st0" width="6.7" height="6.7"/>
	<rect x="771.8" y="233.2" class="st0" width="6.7" height="6.7"/>
	<rect x="771.8" y="213.3" class="st0" width="6.7" height="6.7"/>
	<rect x="771.8" y="223.3" class="st0" width="6.7" height="6.7"/>
	<rect x="791.7" y="213.3" class="st0" width="6.7" height="6.7"/>
	<rect x="781.8" y="213.3" class="st0" width="6.7" height="6.7"/>
	<rect x="771.8" y="263" class="st0" width="6.7" height="6.7"/>
	<rect x="761.9" y="213.3" class="st0" width="6.7" height="6.7"/>
	<rect x="752" y="213.3" class="st0" width="6.7" height="6.7"/>
	<rect x="771.8" y="243.1" class="st0" width="6.7" height="6.7"/>
	<rect x="771.8" y="272.9" class="st0" width="6.7" height="6.7"/>
	<rect x="771.8" y="253.1" class="st0" width="6.7" height="6.7"/>
	<rect x="851.2" y="272.9" class="st0" width="6.7" height="6.7"/>
	<rect x="841.3" y="243.1" class="st0" width="6.7" height="6.7"/>
	<rect x="851.2" y="263" class="st0" width="6.7" height="6.7"/>
	<rect x="841.3" y="213.3" class="st0" width="6.7" height="6.7"/>
	<rect x="831.4" y="213.3" class="st0" width="6.7" height="6.7"/>
	<rect x="851.2" y="223.3" class="st0" width="6.7" height="6.7"/>
	<rect x="851.2" y="233.2" class="st0" width="6.7" height="6.7"/>
	<rect x="851.2" y="243.1" class="st0" width="6.7" height="6.7"/>
	<rect x="851.2" y="253.1" class="st0" width="6.7" height="6.7"/>
	<rect x="831.4" y="243.1" class="st0" width="6.7" height="6.7"/>
	<rect x="811.5" y="243.1" class="st0" width="6.7" height="6.7"/>
	<rect x="811.5" y="263" class="st0" width="6.7" height="6.7"/>
	<rect x="811.5" y="272.9" class="st0" width="6.7" height="6.7"/>
	<rect x="811.5" y="253.1" class="st0" width="6.7" height="6.7"/>
	<rect x="821.5" y="213.3" class="st0" width="6.7" height="6.7"/>
	<rect x="811.5" y="233.2" class="st0" width="6.7" height="6.7"/>
	<rect x="811.5" y="223.3" class="st0" width="6.7" height="6.7"/>
	<rect x="821.5" y="243.1" class="st0" width="6.7" height="6.7"/>
	<rect x="890.9" y="272.9" class="st0" width="6.7" height="6.7"/>
	<rect x="881" y="272.9" class="st0" width="6.7" height="6.7"/>
	<rect x="871.1" y="223.3" class="st0" width="6.7" height="6.7"/>
	<rect x="910.8" y="272.9" class="st0" width="6.7" height="6.7"/>
	<rect x="900.9" y="272.9" class="st0" width="6.7" height="6.7"/>
	<rect x="871.1" y="213.3" class="st0" width="6.7" height="6.7"/>
	<rect x="871.1" y="233.2" class="st0" width="6.7" height="6.7"/>
	<rect x="871.1" y="272.9" class="st0" width="6.7" height="6.7"/>
	<rect x="871.1" y="263" class="st0" width="6.7" height="6.7"/>
	<rect x="871.1" y="253.1" class="st0" width="6.7" height="6.7"/>
	<rect x="871.1" y="243.1" class="st0" width="6.7" height="6.7"/>
	<polygon class="st1" points="10.4,463.3 932.1,463.3 932.1,474 950.3,461.9 932.1,449.8 932.1,460.4 10.4,460.4 	"/>
	<g>
		<g>
			<path class="st2" d="M396.9,111.9h-30.5c-15.9,0-28.8,16.5-28.8,36.8v51.6h13.2v-37.7h61.6v37.7h13.2v-51.6
				c0-9.6-2.9-18.7-8.1-25.8C412,115.8,404.7,111.9,396.9,111.9 M412.5,147.3h-61.6c0.5-11,7.4-20.1,15.4-20.1h30.7
				C405.1,127.2,412,136.3,412.5,147.3"/>
			<path class="st2" d="M511.9,112h-2.3c-6.8,0.2-11.7,6.8-13.4,12.7l-15.7,47.2l-15.5-47c-1.8-6.2-7.2-12.9-13.7-12.9l-2.4,0
				c-6.6,0.6-12.1,6.2-14.1,14.3c-0.4,1.7-0.5,3.3-0.5,3.7v70.4h13.2l0-69.8c0.1-2,1.7-3.1,2.4-3.2c0.9,0,1.4,0,2.4,1.8l23.6,71.4
				h9.3l23.5-70.9c0.3-1,1.3-2.5,2.2-2.7l0.3,0c0.8,0.2,1.9,0.4,2.6,3.7v69.6h13.2v-70.4C526.7,120.7,519.6,112.1,511.9,112"/>
			<path class="st2" d="M622,127.1c-3.4-9.3-11.5-15.2-20.6-15.2h-65.9v88.5h66.2c12,0,22.1-12.3,22.1-26.8c0-7-2.3-13.7-6.4-18.7
				c4-4.4,6.4-11.1,6.4-17.9C623.8,133.6,623.2,130.3,622,127.1 M601.8,146.8h-53.1v-19.6h52.7c4.5,0,9.2,3.7,9.2,9.9
				C610.6,143.4,605.4,146.8,601.8,146.8 M548.6,162.3h53.2c4.7,0,8.7,5.3,8.7,11.4c0,1.5-0.2,3.1-0.7,4.4c-1.3,4-4.7,6.8-8,6.8
				h-53.2V162.3z"/>
			<path class="st2" d="M694.4,111.9h-30.5c-15.9,0-28.8,16.5-28.8,36.8v51.6h13.2v-37.7H710v37.7h13.2v-51.6
				c0-9.6-2.9-18.7-8.2-25.8C709.5,115.8,702.1,111.9,694.4,111.9 M709.9,147.3h-61.6c0.5-11,7.4-20.1,15.4-20.1h30.7
				C702.5,127.2,709.5,136.3,709.9,147.3"/>
			<polygon class="st2" points="723.2,111.9 723.2,127.2 758.8,127.2 758.8,200.3 772,200.3 772,127.2 807.7,127.2 807.7,111.9 			
				"/>
			<path class="st2" d="M851.9,139.8c0,4.2-0.6,8.8,0.5,11.4c2.8,6.5,14.6,6.6,17.2-0.3c1-2.8,0.5-7.5,0.5-11.3V116
				c0-4,0.6-8.7-0.5-11.3c-1.3-3-5.3-5.1-9.3-4.9c-3.6,0.2-6.8,2.3-7.9,4.9c-1.4,3.1-0.5,8.3-0.5,11.3V139.8z"/>
			<path class="st2" d="M893.6,114.3c-3.9-3.4-9.8-3.1-13.3,0.8c-3.4,3.9-3.1,9.8,0.8,13.3c6.6,5.8,10.3,14.1,10.3,22.9
				c0,16.8-13.7,30.5-30.5,30.5c-16.8,0-30.5-13.7-30.5-30.5c0-8.7,3.8-17.1,10.3-22.9c3.9-3.4,4.3-9.4,0.8-13.3
				c-3.4-3.9-9.4-4.3-13.3-0.8c-10.6,9.4-16.7,22.8-16.7,37c0,27.2,22.1,49.3,49.3,49.3c27.2,0,49.3-22.1,49.3-49.3
				C910.3,137.1,904.2,123.6,893.6,114.3"/>
		</g>
		<path class="st3" d="M412.8,273.8c14.4,0,26.1,11.7,26.1,26.1c0,14.4-11.7,26.1-26.1,26.1c-14.4,0-26.1-11.7-26.1-26.1
			C386.7,285.5,398.4,273.8,412.8,273.8 M412.8,278.9c11.6,0,21.1,9.4,21.1,21.1c0,11.6-9.4,21.1-21.1,21.1
			c-11.6,0-21.1-9.4-21.1-21.1C391.7,288.3,401.2,278.9,412.8,278.9"/>
		<path class="st3" d="M413.2,286.5c2.8,0,5,2.2,5,5c0,2.8-2.2,5-5,5c-2.8,0-5-2.2-5-5C408.2,288.8,410.5,286.5,413.2,286.5"/>
		<path class="st3" d="M413.2,298.7c5.7,0,10.4,5,11.1,11.6H402C402.8,303.8,407.5,298.7,413.2,298.7"/>
		<g>
			<path class="st4" d="M258.2,275.4c2.2,0,3.9,1.8,3.9,3.9c0,2.2-1.8,3.9-3.9,3.9s-3.9-1.8-3.9-3.9
				C254.3,277.2,256.1,275.4,258.2,275.4"/>
			<g>
				<path class="st4" d="M257.9,265.5c11.3,0,20.5,9.2,20.5,20.5c0,11.3-9.2,20.5-20.5,20.5c-11.3,0-20.5-9.2-20.5-20.5
					C237.4,274.6,246.6,265.5,257.9,265.5 M257.9,269.4c9.1,0,16.5,7.4,16.5,16.5c0,9.1-7.4,16.5-16.5,16.5
					c-9.1,0-16.5-7.4-16.5-16.5C241.3,276.8,248.7,269.4,257.9,269.4"/>
				<path class="st4" d="M258.2,285c4.5,0,8.1,3.9,8.7,9.1h-17.5C250,289,253.7,285,258.2,285"/>
				<g>
					<path class="st4" d="M540.3,377.8c15.8,0,28.7,12.8,28.7,28.7c0,15.8-12.9,28.7-28.7,28.7c-15.8,0-28.7-12.9-28.7-28.7
						C511.7,390.6,524.5,377.8,540.3,377.8 M540.3,383.3c12.8,0,23.2,10.4,23.2,23.2c0,12.8-10.4,23.2-23.2,23.2
						c-12.8,0-23.2-10.4-23.2-23.2C517.2,393.7,527.6,383.3,540.3,383.3"/>
					<path class="st4" d="M540.8,391.7c3,0,5.5,2.5,5.5,5.5c0,3-2.5,5.5-5.5,5.5c-3.1,0-5.5-2.5-5.5-5.5
						C535.3,394.2,537.8,391.7,540.8,391.7"/>
					<path class="st4" d="M540.7,405.2c6.2,0,11.4,5.5,12.2,12.7h-24.5C529.3,410.7,534.5,405.2,540.7,405.2"/>
				</g>
				<g>
					<path class="st4" d="M867.8,481.9c9.1,0,16.5,7.4,16.5,16.5c0,9.1-7.4,16.5-16.5,16.5c-9.1,0-16.5-7.4-16.5-16.5
						C851.3,489.3,858.7,481.9,867.8,481.9 M867.8,485.1c7.4,0,13.4,6,13.4,13.4c0,7.4-6,13.4-13.4,13.4c-7.4,0-13.4-6-13.4-13.4
						C854.5,491.1,860.5,485.1,867.8,485.1"/>
					<path class="st4" d="M868.1,490c1.8,0,3.2,1.4,3.2,3.2c0,1.8-1.4,3.2-3.2,3.2c-1.8,0-3.2-1.4-3.2-3.2
						C864.9,491.4,866.4,490,868.1,490"/>
					<path class="st4" d="M868.1,497.7c3.6,0,6.6,3.2,7.1,7.3H861C861.5,500.9,864.5,497.7,868.1,497.7"/>
				</g>
			</g>
		</g>
		<g>
			<path class="st5" d="M115.4,407.9c9.1,0,16.5,7.4,16.5,16.5c0,9.1-7.4,16.5-16.5,16.5s-16.5-7.4-16.5-16.5
				C98.8,415.3,106.2,407.9,115.4,407.9 M115.4,411.1c7.4,0,13.3,6,13.3,13.3c0,7.4-6,13.4-13.3,13.4c-7.4,0-13.3-6-13.3-13.4
				C102,417.1,108,411.1,115.4,411.1"/>
			<path class="st5" d="M115.6,416c1.8,0,3.2,1.4,3.2,3.2c0,1.8-1.4,3.2-3.2,3.2c-1.8,0-3.2-1.4-3.2-3.2
				C112.5,417.4,113.9,416,115.6,416"/>
			<path class="st5" d="M115.6,423.7c3.6,0,6.6,3.2,7.1,7.3h-14.1C109,426.9,112,423.7,115.6,423.7"/>
		</g>
		<path class="st5" d="M809.4,406.5c9.9,0,17.9,7,17.9,15.7c0,8.7-8,15.7-17.9,15.7c-9.9,0-17.9-7-17.9-15.7
			C791.5,413.5,799.5,406.5,809.4,406.5 M809.4,409.5c8,0,14.5,5.7,14.5,12.7c0,7-6.5,12.7-14.5,12.7c-8,0-14.5-5.7-14.5-12.7
			C795,415.2,801.4,409.5,809.4,409.5"/>
		<path class="st5" d="M809.7,414.1c1.9,0,3.4,1.3,3.4,3c0,1.7-1.5,3-3.4,3c-1.9,0-3.4-1.3-3.4-3
			C806.3,415.4,807.8,414.1,809.7,414.1"/>
		<path class="st5" d="M809.7,421.4c3.9,0,7.1,3,7.6,7H802C802.6,424.5,805.8,421.4,809.7,421.4"/>
		<rect x="264.3" y="112" class="st0" width="3.2" height="24.1"/>
		<rect x="257.9" y="117.8" class="st0" width="16.1" height="3.2"/>
		<path class="st6" d="M894.2,535.9h-58.4V388h-54.5v75.4h-52.1V388h-51.4v75.4h-52v-87.5h-18.3v-24l-17.9,0v6.5H471.5v-23.6
			l-4.2-0.3v-46.1l-3.7-0.1l0-16.2l-3.9,0l-0.1-6.2l-4.6,0v-5.1h-2.7v-4.6c0-1.3-0.5-31.9-34.1-34.1l-1.5-0.1v-1.5
			c0-1.1-0.3-1.9-0.8-2.4c-0.8-0.7-2.1-0.6-2.1-0.6l-0.2,0l-0.2,0c0,0-1.4-0.2-2.3,0.6c-0.6,0.5-0.9,1.4-0.9,2.6l0,1.4l-1.4,0.2
			c-29.1,3.3-31.7,31.5-31.8,32.7l0,5.8h-3.7v6.8h-2.9v20.3h-2.2v4.9h-4.4v41.9h-8.8v23.8h-53.5V257.8h-9.5V158h-9.8l0-1.6
			c0-0.1,0-10.2-5.9-16.2c-2.9-2.9-6.8-4.4-11.6-4.4h0c-17.2,0-17.9,19.8-17.9,20.6l0,1.5l-10.7,0v99.8h-15.1v64.9h-12.2v31.9h-5.6
			v108.8h-61.3V388h-56v75.3H83v-78.5h62.4v75.4h54.9V351.5h5.6v-31.9h12.2v-64.9h15.1v-99.8h10.9c0.6-5.3,3.7-22.2,21-22.2h0
			c5.7,0,10.3,1.8,13.8,5.4c5.4,5.4,6.5,13.4,6.7,16.8h9.8v99.8h9.5v100.6h47.1v-23.8h8.8v-41.9h4.4v-4.9h2.2v-20.3h2.9v-6.8h3.7
			v-2.7c0-0.4,2.8-31.3,33.3-35.5c0.2-1.5,0.9-2.7,1.9-3.6c1.7-1.5,3.9-1.4,4.6-1.3c0.7,0,2.7,0,4.4,1.4c0.9,0.8,1.5,1.9,1.7,3.3
			c35.2,3.1,35.7,36.8,35.7,37.1v1.4h2.7v5.2l4.6,0l0.1,6.2l3.9,0l0,16.2l3.7,0.1v46.2l4.2,0.3v23.4h111.8v-6.5l24.2-0.1v24h18.3
			v87.5h45.6v-75.4h57.8v75.4h45.7v-75.4H839v147.9H891V462h3.2V535.9z"/>
	</g>
	<polygon class="st1" points="48.5,498.5 48.5,47.3 59.1,47.3 47,26.3 34.9,47.3 45.5,47.3 45.5,498.5 	"/>
	<path class="st3" d="M703.4,401.9c7.7,0,13.9,7.1,13.9,15.9s-6.2,15.9-13.9,15.9c-7.7,0-13.9-7.1-13.9-15.9
		S695.7,401.9,703.4,401.9 M703.4,405c6.2,0,11.2,5.7,11.2,12.8c0,7.1-5,12.8-11.2,12.8c-6.2,0-11.2-5.7-11.2-12.8
		C692.1,410.7,697.2,405,703.4,405"/>
	<path class="st3" d="M703.6,409.6c1.5,0,2.7,1.4,2.7,3.1c0,1.7-1.2,3.1-2.7,3.1c-1.5,0-2.7-1.4-2.7-3.1
		C700.9,411,702.1,409.6,703.6,409.6"/>
	<path class="st3" d="M703.5,417.1c3,0,5.5,3.1,5.9,7h-11.9C698,420.1,700.5,417.1,703.5,417.1"/>
</g>
</svg>
