<?xml version="1.0" encoding="utf-8"?>
<!-- Generator: Adobe Illustrator 19.1.0, SVG Export Plug-In . SVG Version: 6.00 Build 0)  -->
<svg version="1.1" id="Capa_1" xmlns="http://www.w3.org/2000/svg" xmlns:xlink="http://www.w3.org/1999/xlink" x="0px" y="0px"
	 viewBox="0 0 500 100" style="enable-background:new 0 0 500 100;" xml:space="preserve">
<style type="text/css">
	.st0{fill:#4AA84E;}
</style>
<g>
	<path class="st0" d="M26.3,53.1v31.3h14.4V53.1H51l2.5-12.5H41c0,0,0-6.3,0-9.4c0-1.3,0.6-3.1,2.8-3.1c3.1,0,7.5,0,7.5,0V15.6
		c0,0-6.9,0-14.1,0c-6.3,0-11,5-11,11.9c0,6.3,0,13.1,0,13.1h-9.4v12.5H26.3z"/>
	<path class="st0" d="M194.3,50c0,11.6-9.4,21-21,21s-21-9.4-21-21c0-1.3,0-1.9,0.3-3.1h-13.8v26.9c0,5.9,4.7,10.6,10.6,10.6h47.2
		c5.9,0,10.6-4.7,10.6-10.6V46.9h-14.1C194,48.1,194.3,48.7,194.3,50z M197.1,15.6h-47.6c-5.9,0-10.6,4.7-10.6,10.6v11.3h17.5
		c3.8-5.3,10-8.4,16.9-8.4c6.9,0,13.1,3.1,16.9,8.4h17.5V26.2C207.8,20.3,203.1,15.6,197.1,15.6z M202.1,28.7c0,0.9-0.9,1.9-1.9,1.9
		h-5.6c-0.9,0-1.9-0.9-1.9-1.9v-5.6c0-0.9,0.9-1.9,1.9-1.9h5.6c0.9,0,1.9,0.9,1.9,1.9V28.7z M186.2,50c0-7.2-5.6-12.8-12.8-12.8
		c-7.2,0-12.8,5.6-12.8,12.8s5.6,12.8,12.8,12.8S186.2,57.2,186.2,50z"/>
	<path class="st0" d="M311,84.4c-19.1,0-34.4-15.3-34.4-34.4s15.3-34.4,34.4-34.4s34.4,15.3,34.4,34.4S330.1,84.4,311,84.4z
		 M340.1,54.7c-0.9-0.3-9.1-2.8-18.5-1.3c3.8,10.6,5.3,19.1,5.6,21C334.2,70,338.9,62.8,340.1,54.7z M322.6,77.2
		c-0.3-2.5-2.2-11.6-6.3-22.2c0,0,0,0-0.3,0c-16.6,5.6-22.5,17.2-23.1,18.5c5,3.8,11.3,6.3,18.1,6.3
		C315.1,79.4,318.8,78.5,322.6,77.2z M289.1,69.7c0.6-1.2,8.8-14.4,23.8-19.4c0.3,0,0.6-0.3,1.3-0.3c-0.6-1.6-1.6-3.4-2.5-5
		c-14.7,4.4-28.8,4.1-30.3,4.1c0,0.3,0,0.6,0,0.9C281.6,57.5,284.4,64.4,289.1,69.7z M282.2,44.1c1.3,0,13.5,0,27.2-3.4
		c-5-8.8-10-16-11-16.9C290.4,27.5,284.1,35,282.2,44.1z M304.1,21.5c0.9,0.9,6.3,8.4,11,17.2c10.3-4.1,15-10,15.3-10.6
		c-5.3-4.7-11.9-7.5-19.4-7.5C308.5,20.6,306.3,20.9,304.1,21.5z M333.8,31.5c-0.6,0.9-5.6,7.2-16.3,11.6c0.6,1.3,1.3,2.8,1.9,4.4
		c0.3,0.6,0.3,0.9,0.6,1.6c9.7-1.3,19.4,0.6,20.3,0.9C340.4,42.8,337.9,36.5,333.8,31.5z"/>
	<path class="st0" d="M483.1,28.7c-2.5,1.3-5.3,1.9-8.1,2.2c2.8-1.9,5-4.4,6.3-7.8c-2.8,1.6-5.6,2.8-9.1,3.4
		c-2.5-2.8-6.3-4.4-10.3-4.4c-7.8,0-14.1,6.3-14.1,14.1c0,1.3,0,2.2,0.3,3.1c-11.9-0.6-22.2-6.3-29.1-14.7c-1.3,2.2-1.9,4.4-1.9,7.2
		c0,5,2.5,9.1,6.3,11.9c-2.2,0-4.4-0.6-6.3-1.9c0,0,0,0,0,0.3c0,6.9,5,12.5,11.3,13.8c-1.3,0.3-2.5,0.6-3.8,0.6
		c-0.9,0-1.9,0-2.5-0.3c1.9,5.6,6.9,9.7,13.1,9.7c-4.7,3.8-11,5.9-17.5,5.9c-1.2,0-2.2,0-3.4-0.3c6.3,4.1,13.8,6.3,21.6,6.3
		c26,0,40-21.6,40-40c0-0.6,0-1.3,0-1.9C478.7,34,481.2,31.5,483.1,28.7z"/>
</g>
</svg>
