<svg xmlns="http://www.w3.org/2000/svg" id="Layer_1" data-name="Layer 1" viewBox="0 0 377.45 208.76"><defs><style>.cls-1,.cls-6,.cls-7,.cls-8{fill:#696969}.cls-2,.cls-5{fill:#59e800}.cls-3,.cls-4{fill:#00adee}.cls-4,.cls-5,.cls-6{fill-rule:evenodd}.cls-7,.cls-8{font-size:28px;font-family:Myriad Pro;font-style:italic}.cls-8{font-size:20.27px}.cls-9{letter-spacing:-1.03px}</style></defs><title>main-bg-city</title><rect width="2.69" height="2.69" x="214.12" y="103.15" class="cls-1"/><rect width="2.69" height="2.69" x="218.11" y="99.17" class="cls-1"/><rect width="2.69" height="2.69" x="214.12" y="79.24" class="cls-1"/><rect width="2.69" height="2.69" x="210.14" y="79.24" class="cls-1"/><rect width="2.69" height="2.68" x="218.11" y="91.2" class="cls-1"/><rect width="2.69" height="2.69" x="218.11" y="87.21" class="cls-1"/><rect width="2.69" height="2.69" x="218.11" y="83.23" class="cls-1"/><rect width="2.69" height="2.69" x="210.14" y="103.15" class="cls-1"/><rect width="2.69" height="2.68" x="218.11" y="95.19" class="cls-1"/><rect width="2.68" height="2.69" x="202.17" y="103.15" class="cls-1"/><rect width="2.68" height="2.68" x="202.17" y="91.2" class="cls-1"/><rect width="2.68" height="2.69" x="202.17" y="87.21" class="cls-1"/><rect width="2.68" height="2.68" x="202.17" y="95.19" class="cls-1"/><rect width="2.68" height="2.69" x="202.17" y="99.17" class="cls-1"/><rect width="2.69" height="2.69" x="206.15" y="103.15" class="cls-1"/><rect width="2.69" height="2.69" x="206.15" y="79.24" class="cls-1"/><rect width="2.68" height="2.69" x="202.17" y="79.24" class="cls-1"/><rect width="2.68" height="2.69" x="202.17" y="83.23" class="cls-1"/><rect width="2.69" height="2.69" x="238.03" y="103.15" class="cls-1"/><rect width="2.69" height="2.69" x="234.05" y="79.24" class="cls-1"/><rect width="2.69" height="2.68" x="234.05" y="91.2" class="cls-1"/><rect width="2.69" height="2.69" x="234.05" y="87.21" class="cls-1"/><rect width="2.69" height="2.69" x="242.02" y="79.24" class="cls-1"/><rect width="2.69" height="2.69" x="242.02" y="103.15" class="cls-1"/><rect width="2.69" height="2.69" x="238.03" y="79.24" class="cls-1"/><rect width="2.69" height="2.69" x="234.05" y="83.23" class="cls-1"/><rect width="2.69" height="2.69" x="226.08" y="79.24" class="cls-1"/><rect width="2.69" height="2.69" x="230.06" y="103.15" class="cls-1"/><rect width="2.69" height="2.68" x="234.05" y="95.19" class="cls-1"/><rect width="2.69" height="2.69" x="226.08" y="103.15" class="cls-1"/><rect width="2.69" height="2.69" x="234.05" y="99.17" class="cls-1"/><rect width="2.69" height="2.69" x="230.06" y="79.24" class="cls-1"/><rect width="2.69" height="2.69" x="234.05" y="103.15" class="cls-1"/><rect width="2.68" height="2.69" x="257.96" y="79.24" class="cls-1"/><rect width="2.68" height="2.69" x="257.96" y="93.19" class="cls-1"/><rect width="2.69" height="2.69" x="261.95" y="103.15" class="cls-1"/><rect width="2.69" height="2.69" x="265.93" y="99.17" class="cls-1"/><rect width="2.69" height="2.69" x="261.95" y="93.19" class="cls-1"/><rect width="2.69" height="2.69" x="265.93" y="93.19" class="cls-1"/><rect width="2.69" height="2.69" x="261.95" y="79.24" class="cls-1"/><rect width="2.68" height="2.69" x="257.96" y="103.15" class="cls-1"/><rect width="2.69" height="2.68" x="249.99" y="95.19" class="cls-1"/><rect width="2.69" height="2.69" x="249.99" y="99.17" class="cls-1"/><rect width="2.69" height="2.69" x="265.93" y="83.23" class="cls-1"/><rect width="2.69" height="2.69" x="253.97" y="79.24" class="cls-1"/><rect width="2.69" height="2.69" x="253.97" y="103.15" class="cls-1"/><rect width="2.69" height="2.69" x="249.99" y="83.23" class="cls-1"/><rect width="2.69" height="2.69" x="249.99" y="87.21" class="cls-1"/><rect width="2.69" height="2.68" x="249.99" y="91.2" class="cls-1"/><rect width="2.69" height="2.69" x="281.87" y="79.24" class="cls-1"/><rect width="2.68" height="2.69" x="285.86" y="103.15" class="cls-1"/><rect width="2.69" height="2.69" x="281.87" y="83.23" class="cls-1"/><rect width="2.69" height="2.69" x="281.87" y="87.21" class="cls-1"/><rect width="2.69" height="2.69" x="289.84" y="79.24" class="cls-1"/><rect width="2.69" height="2.69" x="281.87" y="99.17" class="cls-1"/><rect width="2.68" height="2.69" x="285.86" y="79.24" class="cls-1"/><rect width="2.69" height="2.69" x="289.84" y="103.15" class="cls-1"/><rect width="2.69" height="2.69" x="277.88" y="103.15" class="cls-1"/><rect width="2.69" height="2.69" x="277.88" y="79.24" class="cls-1"/><rect width="2.69" height="2.69" x="281.87" y="103.15" class="cls-1"/><rect width="2.68" height="2.69" x="273.9" y="79.24" class="cls-1"/><rect width="2.69" height="2.68" x="281.87" y="91.2" class="cls-1"/><rect width="2.69" height="2.68" x="281.87" y="95.19" class="cls-1"/><rect width="2.68" height="2.69" x="273.9" y="103.15" class="cls-1"/><rect width="2.69" height="2.69" x="305.78" y="87.21" class="cls-1"/><rect width="2.69" height="2.69" x="305.78" y="79.24" class="cls-1"/><rect width="2.69" height="2.69" x="305.78" y="83.23" class="cls-1"/><rect width="2.69" height="2.69" x="313.75" y="79.24" class="cls-1"/><rect width="2.69" height="2.69" x="309.76" y="79.24" class="cls-1"/><rect width="2.69" height="2.69" x="305.78" y="99.17" class="cls-1"/><rect width="2.69" height="2.69" x="301.8" y="79.24" class="cls-1"/><rect width="2.69" height="2.69" x="297.81" y="79.24" class="cls-1"/><rect width="2.69" height="2.68" x="305.78" y="91.2" class="cls-1"/><rect width="2.69" height="2.69" x="305.78" y="103.15" class="cls-1"/><rect width="2.69" height="2.68" x="305.78" y="95.19" class="cls-1"/><rect width="2.68" height="2.69" x="337.66" y="103.15" class="cls-1"/><rect width="2.68" height="2.68" x="333.68" y="91.2" class="cls-1"/><rect width="2.68" height="2.69" x="337.66" y="99.17" class="cls-1"/><rect width="2.68" height="2.69" x="333.68" y="79.24" class="cls-1"/><rect width="2.69" height="2.69" x="329.69" y="79.24" class="cls-1"/><rect width="2.68" height="2.69" x="337.66" y="83.23" class="cls-1"/><rect width="2.68" height="2.69" x="337.66" y="87.21" class="cls-1"/><rect width="2.68" height="2.68" x="337.66" y="91.2" class="cls-1"/><rect width="2.68" height="2.68" x="337.66" y="95.19" class="cls-1"/><rect width="2.69" height="2.68" x="329.69" y="91.2" class="cls-1"/><rect width="2.69" height="2.68" x="321.72" y="91.2" class="cls-1"/><rect width="2.69" height="2.69" x="321.72" y="99.17" class="cls-1"/><rect width="2.69" height="2.69" x="321.72" y="103.15" class="cls-1"/><rect width="2.69" height="2.68" x="321.72" y="95.19" class="cls-1"/><rect width="2.69" height="2.69" x="325.71" y="79.24" class="cls-1"/><rect width="2.69" height="2.69" x="321.72" y="87.21" class="cls-1"/><rect width="2.69" height="2.69" x="321.72" y="83.23" class="cls-1"/><rect width="2.69" height="2.68" x="325.71" y="91.2" class="cls-1"/><rect width="2.69" height="2.69" x="353.6" y="103.15" class="cls-1"/><rect width="2.69" height="2.69" x="349.62" y="103.15" class="cls-1"/><rect width="2.69" height="2.69" x="345.63" y="83.23" class="cls-1"/><rect width="2.69" height="2.69" x="361.57" y="103.15" class="cls-1"/><rect width="2.68" height="2.69" x="357.59" y="103.15" class="cls-1"/><rect width="2.69" height="2.69" x="345.63" y="79.24" class="cls-1"/><rect width="2.69" height="2.69" x="345.63" y="87.21" class="cls-1"/><rect width="2.69" height="2.69" x="345.63" y="103.15" class="cls-1"/><rect width="2.69" height="2.69" x="345.63" y="99.17" class="cls-1"/><rect width="2.69" height="2.68" x="345.63" y="95.19" class="cls-1"/><rect width="2.69" height="2.68" x="345.63" y="91.2" class="cls-1"/><polygon points="0 179.63 370.15 179.63 370.15 183.91 377.45 179.04 370.15 174.18 370.15 178.46 0 178.46 0 179.63" class="cls-2"/><path d="M166.85,55.89H154.61c-6.37,0-11.56,6.63-11.56,14.79V91.41h5.3V76.28H173.1V91.41h5.3V70.68a17.33,17.33,0,0,0-3.27-10.35,10.53,10.53,0,0,0-8.29-4.44m6.25,14.23H148.36c0.21-4.43,3-8.06,6.17-8.06h12.31c3.28,0,6.06,3.65,6.25,8.06" class="cls-3" transform="translate(-11.61 -17.39)"/><path d="M213,55.94h-0.94c-2.73.07-4.71,2.72-5.38,5.11L200.42,80,194.19,61.1c-0.71-2.5-2.88-5.16-5.5-5.16h-1c-2.66.23-4.88,2.48-5.66,5.74a8.89,8.89,0,0,0-.21,1.48V91.41h5.3v-28a1.3,1.3,0,0,1,1-1.28c0.37,0,.58,0,1,0.74l9.49,28.67h3.72L211.72,63A1.7,1.7,0,0,1,212.6,62l0.11,0c0.33,0.06.75,0.14,1,1.49V91.41H219V63.13c-0.09-3.7-3-7.13-6-7.19" class="cls-3" transform="translate(-11.61 -17.39)"/><path d="M257.2,62a8.93,8.93,0,0,0-8.26-6.12H222.47V91.41h26.59c4.81,0,8.88-4.92,8.88-10.74a12,12,0,0,0-2.56-7.52A10.87,10.87,0,0,0,257.94,66a11.14,11.14,0,0,0-.73-4m-8.11,7.92H227.77V62.05h21.18a3.79,3.79,0,0,1,3.69,4,3.84,3.84,0,0,1-3.54,3.91m-21.32,6.21h21.36c1.87,0,3.51,2.14,3.51,4.58a5.32,5.32,0,0,1-.29,1.78,3.77,3.77,0,0,1-3.21,2.75H227.77V76.14Z" class="cls-3" transform="translate(-11.61 -17.39)"/><path d="M286.28,55.89H274c-6.37,0-11.56,6.63-11.56,14.79V91.41h5.3V76.28h24.76V91.41h5.3V70.68a17.35,17.35,0,0,0-3.27-10.35,10.54,10.54,0,0,0-8.29-4.44m6.25,14.23H267.8c0.21-4.43,3-8.06,6.17-8.06h12.31c3.28,0,6.07,3.65,6.25,8.06" class="cls-3" transform="translate(-11.61 -17.39)"/><polygon points="286.25 38.5 286.25 44.66 300.56 44.66 300.56 74.02 305.86 74.02 305.86 44.66 320.17 44.66 320.17 38.5 286.25 38.5" class="cls-3"/><path d="M349.55,67.11c0,1.68-.24,3.53.22,4.6,1.12,2.6,5.85,2.67,6.9-.14,0.42-1.12.22-3,.22-4.55V57.54c0-1.62.23-3.49-.22-4.55a3.85,3.85,0,0,0-3.72-2,3.72,3.72,0,0,0-3.18,2c-0.54,1.23-.22,3.34-0.22,4.55v9.56Z" class="cls-3" transform="translate(-11.61 -17.39)"/><path d="M366.3,56.86a3.78,3.78,0,1,0-5,5.66,12.25,12.25,0,1,1-16.2,0,3.78,3.78,0,1,0-5-5.66,19.8,19.8,0,1,0,26.2,0" class="cls-3" transform="translate(-11.61 -17.39)"/><path d="M173.22,120.93a10.48,10.48,0,1,1-10.48,10.48,10.48,10.48,0,0,1,10.48-10.48m0,2a8.46,8.46,0,1,1-8.46,8.46,8.46,8.46,0,0,1,8.46-8.46" class="cls-4" transform="translate(-11.61 -17.39)"/><path d="M173.4,126a2,2,0,1,1-2,2,2,2,0,0,1,2-2" class="cls-4" transform="translate(-11.61 -17.39)"/><path d="M173.36,130.93c2.28,0,4.17,2,4.47,4.65h-8.94c0.3-2.62,2.19-4.65,4.47-4.65" class="cls-4" transform="translate(-11.61 -17.39)"/><path d="M111.15,121.57a1.58,1.58,0,1,1-1.58,1.59,1.58,1.58,0,0,1,1.58-1.59" class="cls-5" transform="translate(-11.61 -17.39)"/><path d="M111,117.57a8.23,8.23,0,1,1-8.23,8.23,8.23,8.23,0,0,1,8.23-8.23m0,1.59a6.64,6.64,0,1,1-6.64,6.64,6.64,6.64,0,0,1,6.64-6.64" class="cls-5" transform="translate(-11.61 -17.39)"/><path d="M111.12,125.42a3.82,3.82,0,0,1,3.51,3.65h-7a3.82,3.82,0,0,1,3.51-3.65" class="cls-5" transform="translate(-11.61 -17.39)"/><path d="M224.44,162.66a11.52,11.52,0,1,1-11.52,11.52,11.52,11.52,0,0,1,11.52-11.52m0,2.22a9.3,9.3,0,1,1-9.3,9.3,9.3,9.3,0,0,1,9.3-9.3" class="cls-5" transform="translate(-11.61 -17.39)"/><path d="M224.63,168.26a2.22,2.22,0,1,1-2.22,2.22,2.22,2.22,0,0,1,2.22-2.22" class="cls-5" transform="translate(-11.61 -17.39)"/><path d="M224.59,173.66c2.51,0,4.58,2.22,4.92,5.11h-9.83c0.33-2.89,2.4-5.11,4.91-5.11" class="cls-5" transform="translate(-11.61 -17.39)"/><path d="M355.94,204.49a6.64,6.64,0,1,1-6.64,6.64,6.64,6.64,0,0,1,6.64-6.64m0,1.28a5.36,5.36,0,1,1-5.36,5.36,5.36,5.36,0,0,1,5.36-5.36" class="cls-5" transform="translate(-11.61 -17.39)"/><path d="M356.05,207.72a1.28,1.28,0,1,1-1.28,1.28,1.28,1.28,0,0,1,1.28-1.28" class="cls-5" transform="translate(-11.61 -17.39)"/><path d="M356,210.83a3.08,3.08,0,0,1,2.84,2.95H353.2a3.09,3.09,0,0,1,2.83-2.95" class="cls-5" transform="translate(-11.61 -17.39)"/><path d="M53.77,174.78a6.64,6.64,0,1,1-6.64,6.64,6.64,6.64,0,0,1,6.64-6.64m0,1.28a5.36,5.36,0,1,1-5.36,5.36,5.36,5.36,0,0,1,5.36-5.36" class="cls-6" transform="translate(-11.61 -17.39)"/><path d="M53.89,178a1.28,1.28,0,1,1-1.28,1.28A1.28,1.28,0,0,1,53.89,178" class="cls-6" transform="translate(-11.61 -17.39)"/><path d="M53.86,181.12a3.08,3.08,0,0,1,2.83,2.94H51a3.08,3.08,0,0,1,2.83-2.94" class="cls-6" transform="translate(-11.61 -17.39)"/><path d="M332.49,174.18c4,0,7.19,2.82,7.19,6.3s-3.22,6.3-7.19,6.3-7.19-2.82-7.19-6.3,3.22-6.3,7.19-6.3m0,1.21c3.21,0,5.81,2.28,5.81,5.09s-2.6,5.09-5.81,5.09-5.81-2.28-5.81-5.09,2.6-5.09,5.81-5.09" class="cls-6" transform="translate(-11.61 -17.39)"/><path d="M332.61,177.25a1.22,1.22,0,1,1-1.38,1.21,1.3,1.3,0,0,1,1.38-1.21" class="cls-6" transform="translate(-11.61 -17.39)"/><path d="M332.59,180.19a3.15,3.15,0,0,1,3.07,2.79h-6.14a3.15,3.15,0,0,1,3.07-2.79" class="cls-6" transform="translate(-11.61 -17.39)"/><rect width="1.27" height="9.69" x="101.97" y="38.54" class="cls-1"/><rect width="6.46" height="1.27" x="99.39" y="40.87" class="cls-1"/><path d="M366.53,226.16H343.07V166.78H321.2v30.29H300.3V166.78H279.65v30.29H258.78V161.92h-7.34v-9.63l-7.18,0v2.61H196.81v-9.49l-1.67-.11V126.8l-1.47-.05v-6.49l-1.56,0,0-2.48-1.85,0V115.7h-1.08v-1.83c0-.52-0.18-12.8-13.67-13.68l-0.6,0v-0.6a1.23,1.23,0,0,0-.32-1,1.27,1.27,0,0,0-.84-0.24h-0.17a1.31,1.31,0,0,0-.91.24,1.34,1.34,0,0,0-.36,1v0.56l-0.56.06C160,101.57,159,112.89,159,113.37v2.32h-1.47v2.71h-1.18v8.15h-0.88v2h-1.76v16.84h-3.53v9.56H128.66V114.5h-3.82V74.43h-3.93V73.78s0-4.1-2.37-6.5a6.28,6.28,0,0,0-4.65-1.76h0c-6.93,0-7.2,7.95-7.21,8.29v0.62h-4.3V114.5H96.31v26.05H91.4v12.83H89.15v43.69H64.55V166.78H42V197H40.77V165.51H65.83V195.8h22V152.11h2.25V139.28H95V113.23h6.08V73.15h4.36c0.23-2.12,1.5-8.91,8.43-8.91h0a7.5,7.5,0,0,1,5.56,2.15,11,11,0,0,1,2.71,6.76h3.94v40.08h3.82v40.41h18.92v-9.56h3.53V127.24h1.76v-2H155v-8.15h1.18v-2.71h1.47v-1.1c0-.18,1.12-12.55,13.37-14.26a2.31,2.31,0,0,1,.76-1.44,2.55,2.55,0,0,1,1.84-.54,2.48,2.48,0,0,1,1.75.56,2.21,2.21,0,0,1,.7,1.32c14.15,1.26,14.32,14.77,14.32,14.91v0.56h1.08v2.07l1.84,0,0,2.48,1.57,0v6.51l1.47,0.05v18.54l1.67,0.11v9.41H243V151l9.73,0v9.64h7.34V195.8h18.32V165.51h23.2V195.8h18.35V165.51h24.41v59.38h20.91V196.47h1.27v29.69Z" class="cls-1" transform="translate(-11.61 -17.39)"/><polygon points="15.3 193.74 15.3 12.58 19.58 12.58 14.71 4.15 9.85 12.58 14.13 12.58 14.13 193.74 15.3 193.74" class="cls-2"/><path d="M289.9,172.36c3.08,0,5.58,2.85,5.58,6.37s-2.5,6.37-5.58,6.37-5.58-2.86-5.58-6.37,2.5-6.37,5.58-6.37m0,1.23c2.49,0,4.5,2.3,4.5,5.14s-2,5.14-4.5,5.14-4.5-2.3-4.5-5.14,2-5.14,4.5-5.14" class="cls-4" transform="translate(-11.61 -17.39)"/><path d="M290,175.46a1.24,1.24,0,1,1-1.07,1.23,1.16,1.16,0,0,1,1.07-1.23" class="cls-4" transform="translate(-11.61 -17.39)"/><path d="M290,178.44c1.21,0,2.22,1.23,2.38,2.83h-4.76c0.16-1.6,1.17-2.83,2.38-2.83" class="cls-4" transform="translate(-11.61 -17.39)"/><text class="cls-7" transform="translate(29.16 23.44)">C<tspan x="14.84" y="0">OMUNI</tspan><tspan x="96.99" y="0">D</tspan><tspan x="114.91" y="0">AD</tspan></text><text class="cls-8" transform="translate(19.58 200.38) scale(0.97 1)">C<tspan x="11.11" y="0">on</tspan><tspan x="32.52" y="0">o</tspan><tspan x="43.16" y="0">cimien</tspan><tspan x="97.41" y="0">t</tspan><tspan x="103.67" y="0">o</tspan><tspan x="113.89" y="0">, Inn</tspan><tspan x="148.23" y="0">o</tspan><tspan x="158.67" y="0">v</tspan><tspan x="167.55" y="0">ación y </tspan><tspan x="229.07" y="0" class="cls-9">T</tspan><tspan x="237.48" y="0">ecnol</tspan><tspan x="281.29" y="0">o</tspan><tspan x="291.93" y="0">gía</tspan></text></svg>